<svg width="19" height="18" viewBox="0 0 19 18" fill="none" xmlns="http://www.w3.org/2000/svg">
<path d="M8.6 9.89999V12.6C8.6 12.855 8.6864 13.0689 8.85919 13.2417C9.03199 13.4145 9.24559 13.5006 9.49999 13.5C9.75439 13.4994 9.96829 13.413 10.1417 13.2408C10.3151 13.0686 10.4012 12.855 10.4 12.6V9.89999H13.1C13.355 9.89999 13.5689 9.81359 13.7417 9.64079C13.9145 9.46799 14.0006 9.25439 14 8.99999C13.9994 8.74559 13.913 8.53199 13.7408 8.35919C13.5686 8.18639 13.355 8.09999 13.1 8.09999H10.4V5.4C10.4 5.145 10.3136 4.9314 10.1408 4.7592C9.96799 4.587 9.75439 4.5006 9.49999 4.5C9.24559 4.4994 9.03199 4.5858 8.85919 4.7592C8.6864 4.9326 8.6 5.1462 8.6 5.4V8.09999H5.9C5.645 8.09999 5.4314 8.18639 5.2592 8.35919C5.087 8.53199 5.0006 8.74559 5 8.99999C4.9994 9.25439 5.0858 9.46829 5.2592 9.64169C5.4326 9.81509 5.6462 9.90119 5.9 9.89999H8.6ZM9.49999 18C8.255 18 7.085 17.7636 5.99 17.2908C4.895 16.818 3.9425 16.1769 3.1325 15.3675C2.3225 14.5581 1.6814 13.6056 1.2092 12.51C0.737001 11.4144 0.500601 10.2444 0.500001 8.99999C0.499401 7.75559 0.735801 6.5856 1.2092 5.49C1.6826 4.3944 2.3237 3.4419 3.1325 2.6325C3.9413 1.8231 4.8938 1.182 5.99 0.7092C7.0862 0.2364 8.2562 0 9.49999 0C10.7438 0 11.9138 0.2364 13.01 0.7092C14.1062 1.182 15.0587 1.8231 15.8675 2.6325C16.6763 3.4419 17.3177 4.3944 17.7917 5.49C18.2657 6.5856 18.5018 7.75559 18.5 8.99999C18.4982 10.2444 18.2618 11.4144 17.7908 12.51C17.3198 13.6056 16.6787 14.5581 15.8675 15.3675C15.0563 16.1769 14.1038 16.8183 13.01 17.2917C11.9162 17.7651 10.7462 18.0012 9.49999 18ZM9.49999 16.2C11.51 16.2 13.2125 15.5025 14.6075 14.1075C16.0025 12.7125 16.7 11.01 16.7 8.99999C16.7 6.99 16.0025 5.2875 14.6075 3.8925C13.2125 2.4975 11.51 1.8 9.49999 1.8C7.49 1.8 5.7875 2.4975 4.3925 3.8925C2.9975 5.2875 2.3 6.99 2.3 8.99999C2.3 11.01 2.9975 12.7125 4.3925 14.1075C5.7875 15.5025 7.49 16.2 9.49999 16.2Z" fill="#474747"/>
</svg>
