<svg width="4" height="17" viewBox="0 0 4 17" fill="none" xmlns="http://www.w3.org/2000/svg">
<path d="M2 16.5C1.45 16.5 0.979335 16.3043 0.588002 15.913C0.196669 15.5217 0.000668362 15.0507 1.69491e-06 14.5C-0.000664972 13.9493 0.195335 13.4787 0.588002 13.088C0.980669 12.6973 1.45133 12.5013 2 12.5C2.54867 12.4987 3.01967 12.6947 3.413 13.088C3.80634 13.4813 4.002 13.952 4 14.5C3.998 15.048 3.80234 15.519 3.413 15.913C3.02367 16.307 2.55267 16.5027 2 16.5ZM2 10.5C1.45 10.5 0.979335 10.3043 0.588002 9.91301C0.196669 9.52167 0.000668362 9.05067 1.69491e-06 8.50001C-0.000664972 7.94934 0.195335 7.47867 0.588002 7.08801C0.980669 6.69734 1.45133 6.50134 2 6.50001C2.54867 6.49867 3.01967 6.69467 3.413 7.08801C3.80634 7.48134 4.002 7.95201 4 8.50001C3.998 9.04801 3.80234 9.51901 3.413 9.91301C3.02367 10.307 2.55267 10.5027 2 10.5ZM2 4.50001C1.45 4.50001 0.979335 4.30434 0.588002 3.91301C0.196669 3.52167 0.000668362 3.05067 1.69491e-06 2.50001C-0.000664972 1.94934 0.195335 1.47867 0.588002 1.08801C0.980669 0.69734 1.45133 0.50134 2 0.500007C2.54867 0.498673 3.01967 0.694673 3.413 1.08801C3.80634 1.48134 4.002 1.95201 4 2.50001C3.998 3.04801 3.80234 3.51901 3.413 3.91301C3.02367 4.30701 2.55267 4.50267 2 4.50001Z" fill="#5c2d91"/>
</svg>
