<svg width="10" height="20" viewBox="0 0 10 20" fill="none" xmlns="http://www.w3.org/2000/svg">
<path d="M8.63636 4.54545V15C8.63636 17.0091 7.00909 18.6364 5 18.6364C2.99091 18.6364 1.36364 17.0091 1.36364 15V3.63636C1.36364 3.0336 1.60308 2.45552 2.0293 2.0293C2.45552 1.60308 3.0336 1.36364 3.63636 1.36364C4.23913 1.36364 4.81721 1.60308 5.24342 2.0293C5.66964 2.45552 5.90909 3.0336 5.90909 3.63636V13.1818C5.90909 13.6818 5.5 14.0909 5 14.0909C4.5 14.0909 4.09091 13.6818 4.09091 13.1818V4.54545H2.72727V13.1818C2.72727 13.7846 2.96672 14.3627 3.39294 14.7889C3.81916 15.2151 4.39724 15.4545 5 15.4545C5.60276 15.4545 6.18084 15.2151 6.60706 14.7889C7.03328 14.3627 7.27273 13.7846 7.27273 13.1818V3.63636C7.27273 1.62727 5.64545 0 3.63636 0C1.62727 0 0 1.62727 0 3.63636V15C0 17.7636 2.23636 20 5 20C7.76364 20 10 17.7636 10 15V4.54545H8.63636Z" fill="#B2B2B2"/>
</svg>
