<svg width="24" height="24" viewBox="0 0 24 24" fill="none" xmlns="http://www.w3.org/2000/svg">
  <path d="M7 2.75C7.41421 2.75 7.75 3.08579 7.75 3.5V5H16.25V3.5C16.25 3.08579 16.5858 2.75 17 2.75C17.4142 2.75 17.75 3.08579 17.75 3.5V5.07231C19.4115 5.25757 20.75 6.66802 20.75 8.375V17.5C20.75 19.3472 19.2472 20.85 17.4 20.85H6.6C4.75282 20.85 3.25 19.3472 3.25 17.5V8.375C3.25 6.66802 4.58854 5.25757 6.25 5.07231V3.5C6.25 3.08579 6.58579 2.75 7 2.75Z" fill="#C61D63"/>
  <path d="M4.75 9.25H19.25V17.5C19.25 18.518 18.418 19.35 17.4 19.35H6.6C5.58204 19.35 4.75 18.518 4.75 17.5V9.25Z" fill="#F8D9E6"/>
  <path d="M8 12.25H10V14.25H8V12.25Z" fill="#C61D63"/>
  <path d="M11 12.25H13V14.25H11V12.25Z" fill="#C61D63"/>
  <path d="M14 12.25H16V14.25H14V12.25Z" fill="#C61D63"/>
  <path d="M8 15.25H10V17.25H8V15.25Z" fill="#C61D63"/>
  <path d="M11 15.25H13V17.25H11V15.25Z" fill="#C61D63"/>
</svg>
