<svg width="16" height="14" viewBox="0 0 16 14" fill="none" xmlns="http://www.w3.org/2000/svg">
<path d="M7.77778 11.2778C8.75 11.2778 9.57652 10.9376 10.2573 10.2573C10.9381 9.57704 11.2783 8.75052 11.2778 7.77778C11.2773 6.80504 10.9371 5.97878 10.2573 5.299C9.57755 4.61922 8.75104 4.27881 7.77778 4.27778C6.80452 4.27674 5.97826 4.61715 5.299 5.299C4.61974 5.98085 4.27933 6.80711 4.27778 7.77778C4.27622 8.74844 4.61663 9.57496 5.299 10.2573C5.98137 10.9397 6.80763 11.2799 7.77778 11.2778ZM7.77778 9.72222C7.23333 9.72222 6.77315 9.53426 6.39722 9.15833C6.0213 8.78241 5.83333 8.32222 5.83333 7.77778C5.83333 7.23333 6.0213 6.77315 6.39722 6.39722C6.77315 6.0213 7.23333 5.83333 7.77778 5.83333C8.32222 5.83333 8.78241 6.0213 9.15833 6.39722C9.53426 6.77315 9.72222 7.23333 9.72222 7.77778C9.72222 8.32222 9.53426 8.78241 9.15833 9.15833C8.78241 9.53426 8.32222 9.72222 7.77778 9.72222ZM1.55556 14C1.12778 14 0.761704 13.8478 0.457333 13.5434C0.152963 13.2391 0.000518518 12.8727 0 12.4444V3.11111C0 2.68333 0.152444 2.31726 0.457333 2.01289C0.762222 1.70852 1.1283 1.55607 1.55556 1.55556H4.00556L4.97778 0.505556C5.12037 0.35 5.29226 0.226852 5.49344 0.136111C5.69463 0.0453703 5.90515 0 6.125 0H9.43055C9.65092 0 9.8617 0.0453703 10.0629 0.136111C10.2641 0.226852 10.4357 0.35 10.5778 0.505556L11.55 1.55556H14C14.4278 1.55556 14.7941 1.708 15.099 2.01289C15.4039 2.31778 15.5561 2.68385 15.5556 3.11111V12.4444C15.5556 12.8722 15.4034 13.2386 15.099 13.5434C14.7946 13.8483 14.4283 14.0005 14 14H1.55556ZM1.55556 12.4444H14V3.11111H10.85L9.43055 1.55556H6.125L4.70555 3.11111H1.55556V12.4444Z" fill="var(--color-text)"/>
</svg>
