<svg width="15" height="15" viewBox="0 0 15 15" fill="none" xmlns="http://www.w3.org/2000/svg">
<path d="M3.21582 15C2.75749 15 2.36527 14.8369 2.03916 14.5108C1.71305 14.1847 1.54971 13.7922 1.54916 13.3333V2.5C1.31305 2.5 1.11527 2.42 0.955823 2.26C0.796379 2.1 0.716379 1.90222 0.715823 1.66667C0.715268 1.43111 0.795268 1.23333 0.955823 1.07333C1.11638 0.913333 1.31416 0.833333 1.54916 0.833333H4.88249C4.88249 0.597222 4.96249 0.399444 5.12249 0.24C5.28249 0.0805556 5.48027 0.000555556 5.71582 0H9.04916C9.28527 0 9.48332 0.0800001 9.64332 0.24C9.80332 0.4 9.88305 0.597778 9.88249 0.833333H13.2158C13.4519 0.833333 13.65 0.913333 13.81 1.07333C13.97 1.23333 14.0497 1.43111 14.0492 1.66667C14.0486 1.90222 13.9686 2.10028 13.8092 2.26083C13.6497 2.42139 13.4519 2.50111 13.2158 2.5V13.3333C13.2158 13.7917 13.0528 14.1842 12.7267 14.5108C12.4005 14.8375 12.008 15.0006 11.5492 15H3.21582ZM11.5492 2.5H3.21582V13.3333H11.5492V2.5ZM5.71582 11.6667C5.95193 11.6667 6.14999 11.5867 6.30999 11.4267C6.46999 11.2667 6.54971 11.0689 6.54916 10.8333V5C6.54916 4.76389 6.46916 4.56611 6.30916 4.40667C6.14916 4.24722 5.95138 4.16722 5.71582 4.16667C5.48027 4.16611 5.28249 4.24611 5.12249 4.40667C4.96249 4.56722 4.88249 4.765 4.88249 5V10.8333C4.88249 11.0694 4.96249 11.2675 5.12249 11.4275C5.28249 11.5875 5.48027 11.6672 5.71582 11.6667ZM9.04916 11.6667C9.28527 11.6667 9.48332 11.5867 9.64332 11.4267C9.80332 11.2667 9.88305 11.0689 9.88249 10.8333V5C9.88249 4.76389 9.80249 4.56611 9.64249 4.40667C9.48249 4.24722 9.28471 4.16722 9.04916 4.16667C8.8136 4.16611 8.61582 4.24611 8.45582 4.40667C8.29582 4.56722 8.21582 4.765 8.21582 5V10.8333C8.21582 11.0694 8.29582 11.2675 8.45582 11.4275C8.61582 11.5875 8.8136 11.6672 9.04916 11.6667Z" fill="#B71653"/>
</svg>
