<svg width="18" height="15" viewBox="0 0 18 15" fill="none" xmlns="http://www.w3.org/2000/svg">
<path d="M0.951172 13.2353V11.6471C0.951172 11.1471 1.08 10.6876 1.33764 10.2688C1.59529 9.85 1.93705 9.53 2.36294 9.30882C3.2747 8.85294 4.20117 8.51118 5.14235 8.28353C6.08353 8.05588 7.03941 7.94176 8.01 7.94118C8.55411 7.94118 9.09088 7.97441 9.62029 8.04088C10.1497 8.10735 10.6791 8.21382 11.2085 8.36029L9.73058 9.86029C9.43647 9.81618 9.1497 9.77941 8.87029 9.75C8.59088 9.72059 8.30411 9.70588 8.01 9.70588C7.18647 9.70588 6.37029 9.80529 5.56147 10.0041C4.75264 10.2029 3.95117 10.5006 3.15705 10.8971C3.0247 10.9706 2.91794 11.0735 2.83676 11.2059C2.75558 11.3382 2.71529 11.4853 2.71588 11.6471V12.3529H8.01V14.1176H1.83352C1.58352 14.1176 1.37411 14.0329 1.20529 13.8635C1.03647 13.6941 0.95176 13.4847 0.951172 13.2353ZM9.7747 14.1176V13.0147C9.7747 12.7794 9.82264 12.555 9.91853 12.3415C10.0144 12.1279 10.1429 11.9406 10.3041 11.7794L14.6497 7.43382C14.7821 7.30147 14.9291 7.20588 15.0909 7.14706C15.2526 7.08824 15.4144 7.05882 15.5762 7.05882C15.7526 7.05882 15.9218 7.09206 16.0835 7.15853C16.2453 7.225 16.3923 7.32412 16.5247 7.45588L17.3409 8.27206C17.4585 8.40441 17.5506 8.55147 17.6171 8.71323C17.6835 8.875 17.7165 9.03677 17.7159 9.19853C17.7153 9.36029 17.6859 9.52588 17.6276 9.69529C17.5694 9.86471 17.4738 10.0153 17.3409 10.1471L12.9953 14.4926C12.8335 14.6544 12.6462 14.7794 12.4332 14.8676C12.2203 14.9559 11.9959 15 11.76 15H10.6571C10.4071 15 10.1976 14.9153 10.0288 14.7459C9.86 14.5765 9.77529 14.3671 9.7747 14.1176ZM11.0982 13.6765H11.9365L14.6056 10.9853L14.2085 10.5662L13.7894 10.1691L11.0982 12.8382V13.6765ZM14.2085 10.5662L13.7894 10.1691L14.6056 10.9853L14.2085 10.5662ZM8.01 7.05882C7.03941 7.05882 6.20853 6.71324 5.51735 6.02206C4.82617 5.33088 4.48058 4.5 4.48058 3.52941C4.48058 2.55882 4.82617 1.72794 5.51735 1.03676C6.20853 0.345588 7.03941 0 8.01 0C8.98058 0 9.81147 0.345588 10.5026 1.03676C11.1938 1.72794 11.5394 2.55882 11.5394 3.52941C11.5394 4.5 11.1938 5.33088 10.5026 6.02206C9.81147 6.71324 8.98058 7.05882 8.01 7.05882ZM8.01 5.29412C8.49529 5.29412 8.91088 5.12147 9.25676 4.77618C9.60264 4.43088 9.77529 4.01529 9.7747 3.52941C9.77411 3.04353 9.60147 2.62824 9.25676 2.28353C8.91206 1.93882 8.49647 1.76588 8.01 1.76471C7.52353 1.76353 7.10823 1.93647 6.76411 2.28353C6.42 2.63059 6.24705 3.04588 6.24529 3.52941C6.24353 4.01294 6.41647 4.42853 6.76411 4.77618C7.11176 5.12382 7.52705 5.29647 8.01 5.29412Z" fill="#5c2d91"/>
</svg>
