<svg width="18" height="15" viewBox="0 0 18 15" fill="none" xmlns="http://www.w3.org/2000/svg">
<path d="M14.0623 3.33333H4.06234V0H14.0623V3.33333ZM14.0623 7.91667C14.2984 7.91667 14.4965 7.83667 14.6565 7.67667C14.8165 7.51667 14.8962 7.31889 14.8957 7.08333C14.8951 6.84778 14.8151 6.65 14.6557 6.49C14.4962 6.33 14.2984 6.25 14.0623 6.25C13.8262 6.25 13.6284 6.33 13.469 6.49C13.3096 6.65 13.2296 6.84778 13.229 7.08333C13.2284 7.31889 13.3084 7.51694 13.469 7.6775C13.6296 7.83806 13.8273 7.91778 14.0623 7.91667ZM12.3957 13.3333V10H5.729V13.3333H12.3957ZM14.0623 15H4.06234V11.6667H0.729004V6.66667C0.729004 5.95833 0.972059 5.36472 1.45817 4.88583C1.94428 4.40694 2.53456 4.16722 3.229 4.16667H14.8957C15.604 4.16667 16.1979 4.40639 16.6773 4.88583C17.1568 5.36528 17.3962 5.95889 17.3957 6.66667V11.6667H14.0623V15Z" fill="#474747"/>
</svg>
