<svg width="21" height="18" viewBox="0 0 21 18" fill="none" xmlns="http://www.w3.org/2000/svg">
<path d="M16.5 4H4.5V0H16.5V4ZM16.5 9.5C16.7833 9.5 17.021 9.404 17.213 9.212C17.405 9.02 17.5007 8.78267 17.5 8.5C17.4993 8.21733 17.4033 7.98 17.212 7.788C17.0207 7.596 16.7833 7.5 16.5 7.5C16.2167 7.5 15.9793 7.596 15.788 7.788C15.5967 7.98 15.5007 8.21733 15.5 8.5C15.4993 8.78267 15.5953 9.02033 15.788 9.213C15.9807 9.40567 16.218 9.50133 16.5 9.5ZM14.5 16V12H6.5V16H14.5ZM16.5 18H4.5V14H0.5V8C0.5 7.15 0.791667 6.43767 1.375 5.863C1.95833 5.28833 2.66667 5.00067 3.5 5H17.5C18.35 5 19.0627 5.28767 19.638 5.863C20.2133 6.43833 20.5007 7.15067 20.5 8V14H16.5V18Z" fill="#bababa"/>
</svg>
