<svg xmlns="http://www.w3.org/2000/svg"  viewBox="0 0 48 48" width="48px" height="48px"><path d="M 24 2 C 21.897342 2 20.200835 3.6648101 20.054688 5.7324219 C 14.829696 7.4189478 11 12.223904 11 18 L 11 23 C 11 25.565935 10.254954 28.129466 9.03125 30.5625 C 7.9309874 32.750566 6.4476421 34.827748 4.8105469 36.679688 A 1.0001 1.0001 0 0 0 4.8085938 36.679688 C 3.7121447 37.92091 4.6756098 40 6.3222656 40 L 18 40 C 18 43.301063 20.698937 46 24 46 C 27.301063 46 30 43.301063 30 40 L 41.677734 40 C 43.32439 40 44.287852 37.92091 43.191406 36.679688 A 1.0001 1.0001 0 0 0 43.189453 36.679688 C 41.600681 34.882359 40.171589 32.867085 39.082031 30.75 A 1.0001 1.0001 0 0 0 38.898438 30.380859 C 37.727393 28.000929 37 25.503462 37 23 L 37 18 C 37 12.223904 33.170305 7.4189478 27.945312 5.7324219 C 27.799165 3.6648101 26.102658 2 24 2 z M 24 4 C 25.116666 4 26 4.8833339 26 6 L 26 6.3925781 A 1.0001 1.0001 0 0 0 26.75 7.3613281 C 31.490517 8.5838006 35 12.86641 35 18 L 35 23 C 35 25.428141 35.674186 27.763829 36.619141 30 L 15 30 A 1.0001 1.0001 0 1 0 15 32 L 37.503906 32 C 38.660359 34.165985 40.096454 36.19964 41.691406 38.003906 C 41.73096 38.048683 41.747079 38 41.677734 38 L 6.3222656 38 C 6.2529216 38 6.2690397 38.048686 6.3085938 38.003906 C 8.0394984 36.045846 9.6226224 33.838871 10.818359 31.460938 L 10.816406 31.460938 C 12.146749 28.815977 13 25.952065 13 23 L 13 18 C 13 12.86641 16.509483 8.5838006 21.25 7.3613281 A 1.0001 1.0001 0 0 0 22 6.3925781 L 22 6 C 22 4.8833339 22.883334 4 24 4 z M 20 40 L 28 40 C 28 42.218937 26.218937 44 24 44 C 21.781063 44 20 42.218937 20 40 z"/></svg>