<svg width="20" height="19" viewBox="0 0 20 19" fill="none" xmlns="http://www.w3.org/2000/svg">
<path d="M18.9369 6.35914L13.2816 5.87154L11.0733 0.705281C10.676 -0.235094 9.32059 -0.235094 8.92333 0.705281L6.71497 5.88315L1.07141 6.35914C0.0431826 6.44041 -0.377456 7.71746 0.405399 8.39081L4.69357 12.0827L3.40829 17.5624C3.1746 18.5608 4.26125 19.3502 5.14926 18.8162L9.99829 15.9138L14.8473 18.8278C15.7353 19.3619 16.822 18.5724 16.5883 17.574L15.303 12.0827L19.5912 8.39081C20.374 7.71746 19.9651 6.44041 18.9369 6.35914ZM9.99829 13.7428L5.60496 16.3782L6.7734 11.4093L2.89418 8.06575L8.01194 7.62458L9.99829 2.94593L11.9963 7.63619L17.1141 8.07736L13.2349 11.4209L14.4033 16.3898L9.99829 13.7428Z" fill="#B2B2B2"/>
</svg>
