<svg width="20" height="20" viewBox="0 0 20 20" fill="none" xmlns="http://www.w3.org/2000/svg">
<path d="M0.969697 18.0364C0.69495 18.0364 0.464808 17.9433 0.279273 17.7571C0.0937375 17.5709 0.000646465 17.3408 0 17.0667L0 11.2485C0 10.9737 0.093091 10.7436 0.279273 10.5581C0.465455 10.3725 0.695596 10.2794 0.969697 10.2788L6.78788 10.2788C7.06263 10.2788 7.29309 10.3719 7.47927 10.5581C7.66545 10.7442 7.75822 10.9744 7.75758 11.2485L7.75758 17.0667C7.75758 17.3414 7.66448 17.5719 7.4783 17.7581C7.29212 17.9442 7.06198 18.037 6.78788 18.0364H0.969697ZM12.3394 7.85455L5.11515 7.85455C4.74343 7.85455 4.46481 7.68873 4.27927 7.35709C4.09374 7.02545 4.09762 6.69834 4.29091 6.37576L7.90303 0.484849C8.09697 0.161616 8.37172 0 8.72727 0C9.08283 0 9.35758 0.161616 9.55152 0.484849L13.1636 6.37576C13.3576 6.69899 13.3618 7.02642 13.1762 7.35806C12.9907 7.6897 12.7118 7.85519 12.3394 7.85455ZM18.303 19.7333L16.4121 17.8424C16.0727 18.0687 15.7052 18.2384 15.3096 18.3515C14.9139 18.4646 14.4976 18.5212 14.0606 18.5212C12.8485 18.5212 11.8183 18.0971 10.9702 17.249C10.122 16.4008 9.69762 15.3703 9.69697 14.1576C9.69632 12.9448 10.1207 11.9147 10.9702 11.0672C11.8196 10.2196 12.8498 9.79523 14.0606 9.79394C15.2714 9.79265 16.3019 10.2171 17.152 11.0672C18.0021 11.9173 18.4262 12.9474 18.4242 14.1576C18.4242 14.5778 18.3677 14.986 18.2545 15.3823C18.1414 15.7786 17.9798 16.1461 17.7697 16.4848L19.6606 18.3758C19.8384 18.5535 19.9273 18.7798 19.9273 19.0545C19.9273 19.3293 19.8384 19.5556 19.6606 19.7333C19.4828 19.9111 19.2566 20 18.9818 20C18.7071 20 18.4808 19.9111 18.303 19.7333ZM14.0606 16.5818C14.7394 16.5818 15.3131 16.3475 15.7818 15.8788C16.2505 15.4101 16.4848 14.8364 16.4848 14.1576C16.4848 13.4788 16.2505 12.9051 15.7818 12.4364C15.3131 11.9677 14.7394 11.7333 14.0606 11.7333C13.3818 11.7333 12.8081 11.9677 12.3394 12.4364C11.8707 12.9051 11.6364 13.4788 11.6364 14.1576C11.6364 14.8364 11.8707 15.4101 12.3394 15.8788C12.8081 16.3475 13.3818 16.5818 14.0606 16.5818Z" fill="#5c2d91"/>
</svg>
