<svg width="20" height="16" viewBox="0 0 20 16" fill="none" xmlns="http://www.w3.org/2000/svg">
<path d="M13 2.5C12.7167 2.5 12.4793 2.404 12.288 2.212C12.0967 2.02 12.0007 1.78267 12 1.5C11.9993 1.21733 12.0953 0.98 12.288 0.788C12.4807 0.596 12.718 0.5 13 0.5H19C19.2833 0.5 19.521 0.596 19.713 0.788C19.905 0.98 20.0007 1.21733 20 1.5C19.9993 1.78267 19.9033 2.02033 19.712 2.213C19.5207 2.40567 19.2833 2.50133 19 2.5H13ZM13 6.5C12.7167 6.5 12.4793 6.404 12.288 6.212C12.0967 6.02 12.0007 5.78267 12 5.5C11.9993 5.21733 12.0953 4.98 12.288 4.788C12.4807 4.596 12.718 4.5 13 4.5H19C19.2833 4.5 19.521 4.596 19.713 4.788C19.905 4.98 20.0007 5.21733 20 5.5C19.9993 5.78267 19.9033 6.02033 19.712 6.213C19.5207 6.40567 19.2833 6.50133 19 6.5H13ZM13 10.5C12.7167 10.5 12.4793 10.404 12.288 10.212C12.0967 10.02 12.0007 9.78267 12 9.5C11.9993 9.21733 12.0953 8.98 12.288 8.788C12.4807 8.596 12.718 8.5 13 8.5H19C19.2833 8.5 19.521 8.596 19.713 8.788C19.905 8.98 20.0007 9.21733 20 9.5C19.9993 9.78267 19.9033 10.0203 19.712 10.213C19.5207 10.4057 19.2833 10.5013 19 10.5H13ZM6 9.5C5.16667 9.5 4.45833 9.20833 3.875 8.625C3.29167 8.04167 3 7.33333 3 6.5C3 5.66667 3.29167 4.95833 3.875 4.375C4.45833 3.79167 5.16667 3.5 6 3.5C6.83333 3.5 7.54167 3.79167 8.125 4.375C8.70833 4.95833 9 5.66667 9 6.5C9 7.33333 8.70833 8.04167 8.125 8.625C7.54167 9.20833 6.83333 9.5 6 9.5ZM0 14.5V13.6C0 13.25 0.0833333 12.9167 0.25 12.6C0.416667 12.2833 0.65 12.0333 0.95 11.85C1.7 11.4 2.496 11.0627 3.338 10.838C4.18 10.6133 5.06733 10.5007 6 10.5C6.93267 10.4993 7.82033 10.612 8.663 10.838C9.50567 11.064 10.3013 11.4013 11.05 11.85C11.35 12.0333 11.5833 12.2833 11.75 12.6C11.9167 12.9167 12 13.25 12 13.6V14.5C12 14.7833 11.904 15.021 11.712 15.213C11.52 15.405 11.2827 15.5007 11 15.5H1C0.716667 15.5 0.479333 15.404 0.288 15.212C0.0966668 15.02 0.000666667 14.7827 0 14.5Z" fill="#B71653"/>
</svg>
