<svg width="19" height="13" viewBox="0 0 19 13" fill="none" xmlns="http://www.w3.org/2000/svg">
<path d="M1.87053 12.5C1.61 12.5 1.39176 12.4114 1.21582 12.2341C1.03988 12.0569 0.951605 11.8378 0.950992 11.5769C0.950379 11.316 1.03865 11.0969 1.21582 10.9197C1.39298 10.7425 1.61122 10.6538 1.87053 10.6538H9.22685C9.48739 10.6538 9.70593 10.7425 9.88248 10.9197C10.059 11.0969 10.147 11.316 10.1464 11.5769C10.1458 11.8378 10.0575 12.0572 9.88156 12.2351C9.70563 12.4129 9.48739 12.5012 9.22685 12.5H1.87053ZM1.87053 7.88461C1.61 7.88461 1.39176 7.79599 1.21582 7.61876C1.03988 7.44153 0.951605 7.22245 0.950992 6.96153C0.950379 6.70061 1.03865 6.48153 1.21582 6.3043C1.39298 6.12707 1.61122 6.03846 1.87053 6.03846H4.62915C4.88969 6.03846 5.10823 6.12707 5.28478 6.3043C5.46134 6.48153 5.5493 6.70061 5.54869 6.96153C5.54808 7.22245 5.4598 7.44184 5.28386 7.61969C5.10793 7.79753 4.88969 7.88584 4.62915 7.88461H1.87053ZM1.87053 3.26923C1.61 3.26923 1.39176 3.18061 1.21582 3.00338C1.03988 2.82615 0.951605 2.60707 0.950992 2.34615C0.950379 2.08523 1.03865 1.86615 1.21582 1.68892C1.39298 1.51169 1.61122 1.42308 1.87053 1.42308H4.62915C4.88969 1.42308 5.10823 1.51169 5.28478 1.68892C5.46134 1.86615 5.5493 2.08523 5.54869 2.34615C5.54808 2.60707 5.4598 2.82646 5.28386 3.00431C5.10793 3.18215 4.88969 3.27046 4.62915 3.26923H1.87053ZM11.9855 9.73076C10.7134 9.73076 9.6293 9.28061 8.73306 8.3803C7.83681 7.47999 7.38838 6.39169 7.38777 5.11538C7.38716 3.83907 7.83559 2.75077 8.73306 1.85046C9.63053 0.950153 10.7147 0.5 11.9855 0.5C13.2563 0.5 14.3407 0.950153 15.2388 1.85046C16.1369 2.75077 16.585 3.83907 16.5832 5.11538C16.5832 5.56153 16.5179 6.00399 16.3873 6.44276C16.2567 6.88153 16.0615 7.28522 15.8016 7.65384L18.6981 10.5615C18.8667 10.7308 18.951 10.9461 18.951 11.2077C18.951 11.4692 18.8667 11.6846 18.6981 11.8538C18.5295 12.0231 18.315 12.1077 18.0544 12.1077C17.7939 12.1077 17.5793 12.0231 17.4108 11.8538L14.5142 8.94615C14.1464 9.20768 13.7442 9.40399 13.3078 9.53507C12.8713 9.66614 12.4305 9.73137 11.9855 9.73076ZM11.9855 7.88461C12.7518 7.88461 13.4031 7.61538 13.9395 7.07692C14.4759 6.53846 14.7441 5.88461 14.7441 5.11538C14.7441 4.34615 14.4759 3.6923 13.9395 3.15384C13.4031 2.61538 12.7518 2.34615 11.9855 2.34615C11.2192 2.34615 10.5678 2.61538 10.0314 3.15384C9.49505 3.6923 9.22685 4.34615 9.22685 5.11538C9.22685 5.88461 9.49505 6.53846 10.0314 7.07692C10.5678 7.61538 11.2192 7.88461 11.9855 7.88461Z" fill="#646464"/>
</svg>
