<svg width="19" height="13" viewBox="0 0 19 13" fill="none" xmlns="http://www.w3.org/2000/svg">
<path d="M1.87072 12.5C1.61018 12.5 1.39194 12.4114 1.216 12.2341C1.04006 12.0569 0.951788 11.8378 0.951175 11.5769C0.950562 11.316 1.03884 11.0969 1.216 10.9197C1.39317 10.7425 1.6114 10.6538 1.87072 10.6538H9.22704C9.48757 10.6538 9.70612 10.7425 9.88267 10.9197C10.0592 11.0969 10.1472 11.316 10.1466 11.5769C10.146 11.8378 10.0577 12.0572 9.88175 12.2351C9.70581 12.4129 9.48757 12.5012 9.22704 12.5H1.87072ZM1.87072 7.88461C1.61018 7.88461 1.39194 7.79599 1.216 7.61876C1.04006 7.44153 0.951788 7.22245 0.951175 6.96153C0.950562 6.70061 1.03884 6.48153 1.216 6.3043C1.39317 6.12707 1.6114 6.03846 1.87072 6.03846H4.62933C4.88987 6.03846 5.10842 6.12707 5.28497 6.3043C5.46152 6.48153 5.54949 6.70061 5.54887 6.96153C5.54826 7.22245 5.45999 7.44184 5.28405 7.61969C5.10811 7.79753 4.88987 7.88584 4.62933 7.88461H1.87072ZM1.87072 3.26923C1.61018 3.26923 1.39194 3.18061 1.216 3.00338C1.04006 2.82615 0.951788 2.60707 0.951175 2.34615C0.950562 2.08523 1.03884 1.86615 1.216 1.68892C1.39317 1.51169 1.6114 1.42308 1.87072 1.42308H4.62933C4.88987 1.42308 5.10842 1.51169 5.28497 1.68892C5.46152 1.86615 5.54949 2.08523 5.54887 2.34615C5.54826 2.60707 5.45999 2.82646 5.28405 3.00431C5.10811 3.18215 4.88987 3.27046 4.62933 3.26923H1.87072ZM11.9857 9.73076C10.7136 9.73076 9.62949 9.28061 8.73324 8.3803C7.837 7.47999 7.38857 6.39169 7.38795 5.11538C7.38734 3.83907 7.83577 2.75077 8.73324 1.85046C9.63071 0.950153 10.7149 0.5 11.9857 0.5C13.2565 0.5 14.3409 0.950153 15.239 1.85046C16.1371 2.75077 16.5852 3.83907 16.5834 5.11538C16.5834 5.56153 16.5181 6.00399 16.3875 6.44276C16.2569 6.88153 16.0617 7.28522 15.8017 7.65384L18.6983 10.5615C18.8669 10.7308 18.9512 10.9461 18.9512 11.2077C18.9512 11.4692 18.8669 11.6846 18.6983 11.8538C18.5297 12.0231 18.3152 12.1077 18.0546 12.1077C17.7941 12.1077 17.5795 12.0231 17.4109 11.8538L14.5144 8.94615C14.1466 9.20768 13.7444 9.40399 13.308 9.53507C12.8715 9.66614 12.4307 9.73137 11.9857 9.73076ZM11.9857 7.88461C12.7519 7.88461 13.4033 7.61538 13.9397 7.07692C14.4761 6.53846 14.7443 5.88461 14.7443 5.11538C14.7443 4.34615 14.4761 3.6923 13.9397 3.15384C13.4033 2.61538 12.7519 2.34615 11.9857 2.34615C11.2194 2.34615 10.568 2.61538 10.0316 3.15384C9.49523 3.6923 9.22704 4.34615 9.22704 5.11538C9.22704 5.88461 9.49523 6.53846 10.0316 7.07692C10.568 7.61538 11.2194 7.88461 11.9857 7.88461Z" fill="#B71653"/>
</svg>
